<svg
  width="78"
  height="28"
  viewBox="0 0 78 28"
  fill="none"
  xmlns="http://www.w3.org/2000/svg"
>
  <path
    d="M32.3209 6.39883V12.8285L31.9984 12.721C32.2134 11.7892 32.6507 11.1082 33.3101 10.6781C33.9696 10.2337 34.7581 10.0115 35.6756 10.0115C36.8511 10.0115 37.783 10.4057 38.4711 11.1942C39.1735 11.9684 39.5248 13.0149 39.5248 14.3338V21.6667H37.2454V15.151C37.2454 14.1044 37.0662 13.3231 36.7078 12.807C36.3494 12.2909 35.7902 12.0329 35.0304 12.0329C34.199 12.0329 33.5395 12.3053 33.0521 12.85C32.5646 13.3805 32.3209 14.1474 32.3209 15.151V21.6667H30.0415V6.39883H32.3209ZM41.3558 15.9681C41.3558 14.7782 41.578 13.7317 42.0224 12.8285C42.4812 11.9254 43.1191 11.2301 43.9363 10.7426C44.7534 10.2552 45.7068 10.0115 46.7963 10.0115C47.7282 10.0115 48.574 10.2265 49.3338 10.6566C50.1079 11.0867 50.7244 11.7462 51.1831 12.635C51.6419 13.5095 51.8928 14.5918 51.9358 15.8821L51.9573 16.6132H43.7643C43.8359 17.6741 44.137 18.5056 44.6674 19.1077C45.1979 19.6955 45.9075 19.9894 46.7963 19.9894C47.3698 19.9894 47.8859 19.8317 48.3446 19.5163C48.8177 19.2009 49.1689 18.7708 49.3983 18.226L51.7853 18.3981C51.4555 19.4733 50.8319 20.3334 49.9144 20.9785C49.0112 21.6093 47.9719 21.9247 46.7963 21.9247C45.7068 21.9247 44.7534 21.681 43.9363 21.1936C43.1191 20.7062 42.4812 20.0109 42.0224 19.1077C41.578 18.2045 41.3558 17.158 41.3558 15.9681ZM49.5488 14.9144C49.4198 13.8966 49.1044 13.1511 48.6027 12.678C48.1152 12.1906 47.5131 11.9469 46.7963 11.9469C45.9648 11.9469 45.291 12.2121 44.7749 12.7425C44.2588 13.2586 43.9363 13.9826 43.8073 14.9144H49.5488ZM56.0262 10.2695L56.0692 12.1404C56.3416 11.4666 56.7574 10.9433 57.3165 10.5706C57.8899 10.1979 58.5565 10.0115 59.3164 10.0115C60.1335 10.0115 60.8288 10.2194 61.4022 10.6351C61.9757 11.0509 62.3843 11.6315 62.628 12.3769C62.886 11.6028 63.3018 11.015 63.8752 10.6136C64.463 10.2122 65.1869 10.0115 66.0471 10.0115C66.8069 10.0115 67.4592 10.1835 68.004 10.5276C68.5631 10.8573 68.986 11.3447 69.2727 11.9899C69.5738 12.635 69.7243 13.4163 69.7243 14.3338V21.6667H67.4449V15.0434C67.4449 14.0399 67.2728 13.2729 66.9288 12.7425C66.5847 12.1977 66.0901 11.9254 65.445 11.9254C64.9146 11.9254 64.4558 12.0472 64.0687 12.2909C63.696 12.5346 63.4093 12.893 63.2086 13.3661C63.0079 13.8249 62.9075 14.384 62.9075 15.0434V21.6667H60.7571V15.0434C60.7571 14.0399 60.5779 13.2729 60.2195 12.7425C59.8755 12.1977 59.388 11.9254 58.7572 11.9254C58.2268 11.9254 57.7681 12.0472 57.381 12.2909C57.0083 12.5346 56.7215 12.893 56.5208 13.3661C56.3201 13.8249 56.2198 14.384 56.2198 15.0434V21.6667H53.9404V10.2695H56.0262ZM74.8157 10.2695V21.6667H72.5363V10.2695H74.8157ZM74.8802 6.42033V8.63524H72.4933V6.42033H74.8802Z"
    fill="#000202"
  />
  <path
    d="M13.4326 2.90965C13.3166 2.88894 13.2074 2.96489 13.187 3.08228L11.7885 11.1129H10.7447L9.34618 3.08228C9.32571 2.96489 9.21656 2.88894 9.10058 2.90965C4.13415 3.88327 0.327456 8.16442 0.0136428 13.3985C0.0136428 13.4054 0 13.6263 0 13.7368C0 13.7506 0 13.7644 0 13.7714C0 13.8128 0 13.8542 0 13.8956C0 13.9095 0 13.9233 0 13.944C0 13.9992 0 14.0476 0 14.1028C0 19.6545 3.91584 24.274 9.10741 25.2959C9.22338 25.3167 9.33253 25.2407 9.353 25.1233L10.7515 17.0927H11.7953L13.187 25.1302C13.2074 25.2476 13.3166 25.3236 13.4326 25.3028C18.399 24.3223 22.1989 20.0412 22.5195 14.8071C22.5195 14.8002 22.5332 14.5792 22.5332 14.4688C22.5332 14.455 22.5332 14.4411 22.5332 14.4342C22.5332 14.3928 22.5332 14.3514 22.5332 14.3099C22.5332 14.2961 22.5332 14.2823 22.5332 14.2616C22.5332 14.2064 22.5332 14.158 22.5332 14.1028C22.54 8.55111 18.6241 3.9316 13.4326 2.90965Z"
    fill="#FF6C15"
  />
</svg>
